M48
; DRILL file KiCad 10.0.1 date 2026-05-03T23:06:14
; FORMAT={-:-/ absolute / metric / decimal}
; #@! TF.CreationDate,2026-05-03T23:06:14-04:00
; #@! TF.GenerationSoftware,Kicad,Pcbnew,10.0.1
; #@! TF.FileFunction,NonPlated,1,2,NPTH
FMAT,2
METRIC
; #@! TA.AperFunction,NonPlated,NPTH,ComponentDrill
T1C0.500
; #@! TA.AperFunction,NonPlated,NPTH,ComponentDrill
T2C1.700
; #@! TA.AperFunction,NonPlated,NPTH,ComponentDrill
T3C3.400
%
G90
G05
T1
X141.035Y-36.814
X141.035Y-37.564
X141.035Y-38.314
X141.035Y-39.064
X141.035Y-39.814
X141.035Y-40.564
X141.035Y-41.314
X141.035Y-42.064
X141.035Y-42.814
X141.035Y-43.564
X141.035Y-43.564
X141.035Y-44.314
X141.035Y-79.731
X141.035Y-80.481
X141.035Y-81.231
X141.035Y-81.981
X141.035Y-82.731
X141.035Y-83.481
X141.035Y-84.231
X141.035Y-84.981
X141.035Y-85.731
X141.035Y-86.481
X141.035Y-86.481
X141.035Y-87.231
X141.035Y-120.634
X141.035Y-121.384
X141.035Y-122.134
X141.035Y-122.884
X141.035Y-123.634
X141.035Y-124.384
X141.035Y-125.134
X141.035Y-125.884
X141.035Y-126.634
X141.035Y-127.384
X141.035Y-127.384
X141.035Y-128.134
X146.035Y-36.814
X146.035Y-37.564
X146.035Y-38.314
X146.035Y-39.064
X146.035Y-39.814
X146.035Y-40.564
X146.035Y-41.314
X146.035Y-42.064
X146.035Y-42.814
X146.035Y-43.564
X146.035Y-43.564
X146.035Y-44.314
X146.035Y-79.731
X146.035Y-80.481
X146.035Y-81.231
X146.035Y-81.981
X146.035Y-82.731
X146.035Y-83.481
X146.035Y-84.231
X146.035Y-84.981
X146.035Y-85.731
X146.035Y-86.481
X146.035Y-86.481
X146.035Y-87.231
X146.035Y-120.634
X146.035Y-121.384
X146.035Y-122.134
X146.035Y-122.884
X146.035Y-123.634
X146.035Y-124.384
X146.035Y-125.134
X146.035Y-125.884
X146.035Y-126.634
X146.035Y-127.384
X146.035Y-127.384
X146.035Y-128.134
T2
X47.1Y-81.051
X47.1Y-100.101
X47.1Y-119.151
X58.1Y-81.051
X58.1Y-100.101
X58.1Y-119.151
X66.15Y-81.051
X66.15Y-100.101
X66.15Y-119.151
X77.15Y-81.051
X77.15Y-100.101
X77.15Y-119.151
X85.2Y-81.051
X85.2Y-100.101
X85.2Y-119.151
X96.2Y-81.051
X96.2Y-100.101
X96.2Y-119.151
X104.25Y-81.051
X104.25Y-100.101
X104.25Y-119.151
X115.25Y-81.051
X115.25Y-100.101
X115.25Y-119.151
X123.3Y-81.051
X123.3Y-100.101
X123.3Y-119.151
X134.3Y-81.051
X134.3Y-100.101
X134.3Y-119.151
X152.948Y-81.051
X152.948Y-100.101
X152.948Y-119.151
X163.948Y-81.051
X163.948Y-100.101
X163.948Y-119.151
X171.998Y-81.051
X171.998Y-100.101
X171.998Y-119.151
X182.998Y-81.051
X182.998Y-100.101
X182.998Y-119.151
X191.048Y-81.051
X191.048Y-100.101
X191.048Y-119.151
X202.048Y-81.051
X202.048Y-100.101
X202.048Y-119.151
X210.098Y-81.051
X210.098Y-100.101
X210.098Y-119.151
X221.098Y-81.051
X221.098Y-100.101
X221.098Y-119.151
X229.148Y-81.051
X229.148Y-100.101
X229.148Y-119.151
X240.148Y-81.051
X240.148Y-100.101
X240.148Y-119.151
T3
X52.6Y-81.051
X52.6Y-100.101
X52.6Y-119.151
X71.65Y-81.051
X71.65Y-100.101
X71.65Y-119.151
X90.7Y-81.051
X90.7Y-100.101
X90.7Y-119.151
X109.75Y-81.051
X109.75Y-100.101
X109.75Y-119.151
X128.8Y-81.051
X128.8Y-100.101
X128.8Y-119.151
X158.448Y-81.051
X158.448Y-100.101
X158.448Y-119.151
X177.498Y-81.051
X177.498Y-100.101
X177.498Y-119.151
X196.548Y-81.051
X196.548Y-100.101
X196.548Y-119.151
X215.598Y-81.051
X215.598Y-100.101
X215.598Y-119.151
X234.648Y-81.051
X234.648Y-100.101
X234.648Y-119.151
M30
