M48
; DRILL file KiCad 10.0.1 date 2026-05-03T23:06:14
; FORMAT={-:-/ absolute / metric / decimal}
; #@! TF.CreationDate,2026-05-03T23:06:14-04:00
; #@! TF.GenerationSoftware,Kicad,Pcbnew,10.0.1
; #@! TF.FileFunction,Plated,1,2,PTH
FMAT,2
METRIC
; #@! TA.AperFunction,Plated,PTH,ViaDrill
T1C0.300
; #@! TA.AperFunction,Plated,PTH,ComponentDrill
T2C2.500
; #@! TA.AperFunction,Plated,PTH,ComponentDrill
T3C3.000
%
G90
G05
T1
X57.302Y-69.088
X60.808Y-54.559
X60.833Y-68.529
X62.332Y-68.453
X74.955Y-69.52
X77.648Y-47.473
X89.535Y-63.373
X207.086Y-47.295
X207.467Y-46.304
X207.696Y-48.819
X212.09Y-69.825
X228.575Y-61.29
X231.445Y-70.104
T2
X63.816Y-56.597
X66.001Y-59.202
X213.22Y-53.079
X215.406Y-50.475
T3
X52.6Y-87.001
X52.6Y-106.051
X52.6Y-125.101
X57.6Y-84.801
X57.6Y-103.851
X57.6Y-122.901
X71.65Y-87.001
X71.65Y-106.051
X71.65Y-125.101
X76.65Y-84.801
X76.65Y-103.851
X76.65Y-122.901
X90.7Y-87.001
X90.7Y-106.051
X90.7Y-125.101
X95.7Y-84.801
X95.7Y-103.851
X95.7Y-122.901
X109.75Y-87.001
X109.75Y-106.051
X109.75Y-125.101
X114.75Y-84.801
X114.75Y-103.851
X114.75Y-122.901
X128.8Y-87.001
X128.8Y-106.051
X128.8Y-125.101
X133.8Y-84.801
X133.8Y-103.851
X133.8Y-122.901
X158.448Y-87.001
X158.448Y-106.051
X158.448Y-125.101
X163.448Y-84.801
X163.448Y-103.851
X163.448Y-122.901
X177.498Y-87.001
X177.498Y-106.051
X177.498Y-125.101
X182.498Y-84.801
X182.498Y-103.851
X182.498Y-122.901
X196.548Y-87.001
X196.548Y-106.051
X196.548Y-125.101
X201.548Y-84.801
X201.548Y-103.851
X201.548Y-122.901
X215.598Y-87.001
X215.598Y-106.051
X215.598Y-125.101
X220.598Y-84.801
X220.598Y-103.851
X220.598Y-122.901
X234.648Y-87.001
X234.648Y-106.051
X234.648Y-125.101
X239.648Y-84.801
X239.648Y-103.851
X239.648Y-122.901
M30
